<?xml version="1.0" standalone="no"?>
<!DOCTYPE svg PUBLIC "-//W3C//DTD SVG 20010904//EN"
 "http://www.w3.org/TR/2001/REC-SVG-20010904/DTD/svg10.dtd">
<svg version="1.0" xmlns="http://www.w3.org/2000/svg"
 width="1200.000000pt" height="1200.000000pt" viewBox="0 0 1200.000000 1200.000000"
 preserveAspectRatio="xMidYMid meet">
<metadata>
Created by potrace 1.14, written by Peter Selinger 2001-2017
</metadata>
<g transform="translate(0.000000,1200.000000) scale(0.100000,-0.100000)"
fill="#000000" stroke="none">
<path d="M5937 7705 c-1 -2 -58 -5 -127 -9 -130 -6 -149 -8 -265 -27 -109 -18
-183 -38 -250 -68 -60 -28 -114 -78 -116 -109 -4 -55 -3 -555 1 -561 13 -20
300 -89 440 -106 30 -4 66 -9 80 -10 335 -45 743 -11 1049 86 70 22 71 22 72
58 2 99 0 518 -3 532 -15 68 -128 134 -283 163 -46 9 -87 16 -125 22 -19 3
-45 7 -58 9 -45 8 -408 25 -415 20z m243 -109 c58 -4 119 -9 135 -11 17 -3 50
-7 75 -10 129 -14 307 -66 324 -94 22 -34 -223 -100 -444 -119 -161 -13 -529
-7 -640 12 -14 2 -56 7 -95 11 -132 13 -274 71 -243 100 29 26 207 78 312 91
24 2 55 7 67 10 13 2 105 7 204 11 99 3 182 7 184 9 2 2 7 2 10 0 3 -2 53 -7
111 -10z"/>
<path d="M5179 6802 c0 -9 -1 -123 -2 -252 l-2 -235 55 -18 c69 -21 196 -52
275 -66 33 -6 71 -13 85 -16 35 -7 90 -14 190 -24 85 -9 463 -7 510 3 14 2 47
7 75 11 68 8 184 31 236 46 24 7 49 13 56 15 7 1 47 14 90 28 l78 26 -1 242
c-1 134 -2 246 -3 250 0 4 -27 -2 -58 -13 -52 -18 -195 -53 -263 -65 -14 -2
-34 -6 -45 -8 -20 -5 -68 -10 -205 -25 -86 -9 -406 -7 -495 3 -213 25 -462 72
-550 106 -21 8 -25 7 -26 -8z"/>
<path d="M5176 5988 c0 -129 5 -234 11 -248 34 -82 248 -152 538 -177 167 -15
551 -8 652 11 10 2 38 7 63 10 177 24 318 79 359 140 22 34 23 42 23 238 0
112 -1 213 -1 225 -1 21 -2 22 -39 9 -47 -17 -216 -63 -257 -70 -209 -39 -326
-49 -530 -49 -87 0 -213 7 -295 18 -137 17 -217 32 -345 65 -82 21 -157 41
-165 44 -14 6 -15 -20 -14 -216z"/>
<path d="M7399 5753 c0 -5 -2 -47 -2 -96 l-2 -87 1428 0 1427 0 0 95 0 95
-1425 0 c-784 0 -1425 -3 -1426 -7z"/>
<path d="M1750 5645 l0 -95 1408 -1 c1373 -1 1433 -1 1441 7 2 2 4 44 5 94 l1
90 -1427 0 -1428 0 0 -95z"/>
<path d="M4155 5070 c-3 -5 -32 -12 -65 -16 -49 -5 -58 -9 -57 -25 1 -15 9
-19 37 -19 l35 0 0 -312 c-1 -172 -4 -323 -9 -335 -4 -13 -18 -26 -32 -29 -14
-4 -23 -11 -21 -18 2 -7 42 -12 110 -14 101 -3 107 -2 107 17 0 15 -8 21 -31
23 l-31 3 0 368 c1 352 0 367 -18 367 -10 0 -21 -4 -25 -10z"/>
<path d="M6124 5070 c-6 -6 -36 -14 -67 -17 -46 -5 -55 -9 -54 -24 1 -14 9
-19 33 -19 18 0 34 -6 36 -12 2 -7 3 -151 2 -320 -1 -283 -2 -309 -19 -328
-10 -11 -24 -20 -32 -20 -7 0 -13 -7 -13 -15 0 -13 16 -15 107 -13 92 3 106 5
109 21 2 13 -5 17 -29 17 l-32 0 1 187 1 186 27 23 c33 29 96 49 130 40 34 -8
64 -42 76 -86 12 -45 11 -309 -1 -331 -5 -10 -18 -21 -29 -24 -11 -3 -20 -13
-20 -21 0 -11 21 -14 109 -14 104 0 110 1 108 20 -1 15 -8 20 -33 20 l-31 0 1
143 c2 153 -5 212 -30 268 -34 77 -141 101 -242 54 -29 -13 -56 -26 -60 -27
-3 -2 -7 64 -7 147 0 126 -2 150 -15 153 -9 1 -20 -2 -26 -8z"/>
<path d="M8897 5059 c-17 -10 -51 -17 -89 -18 -11 -1 -18 -9 -18 -21 0 -16 7
-20 34 -20 33 0 34 -1 38 -47 1 -27 2 -70 0 -96 -3 -41 -6 -48 -20 -42 -37 15
-133 17 -179 4 -65 -18 -144 -96 -166 -164 -19 -60 -27 -134 -15 -141 4 -3 6
-10 2 -15 -11 -18 28 -118 60 -150 41 -43 101 -69 158 -69 46 0 130 29 142 49
8 12 27 15 25 4 -5 -29 4 -33 76 -33 68 0 75 2 75 20 0 16 -7 20 -33 20 l-33
0 1 353 c0 193 -1 358 -3 365 -5 15 -30 15 -55 1z m-63 -290 c21 -10 26 -20
27 -48 1 -20 1 -39 0 -44 -1 -4 -2 -69 -2 -144 -1 -130 -2 -137 -25 -158 -36
-33 -79 -48 -118 -41 -39 7 -94 58 -103 96 -3 14 -9 30 -13 35 -11 14 -10 150
2 193 13 49 53 101 92 118 34 16 97 12 140 -7z"/>
<path d="M4309 4973 c0 -27 -2 -75 -2 -108 -2 -56 0 -60 21 -63 15 -2 22 1 21
10 -4 18 12 100 22 120 16 30 61 46 129 44 l65 -1 0 -289 c0 -312 -4 -340 -49
-352 -14 -3 -26 -12 -26 -20 0 -11 25 -14 125 -14 117 0 125 1 125 19 0 16 -8
20 -42 23 l-42 3 2 290 c1 160 2 303 2 318 0 28 0 28 63 26 101 -3 132 -29
144 -119 6 -52 11 -60 31 -60 17 0 18 8 16 93 -1 50 -2 100 -3 110 -1 16 -22
17 -301 17 l-300 0 -1 -47z"/>
<path d="M6638 5014 c-15 -15 6 -34 38 -34 l35 0 -1 -287 c-1 -159 -6 -302
-11 -320 -7 -20 -18 -33 -34 -37 -14 -4 -25 -13 -25 -21 0 -12 21 -15 119 -15
108 0 119 2 117 18 -2 12 -13 18 -37 20 l-34 3 -1 154 0 155 177 0 c133 0 178
-3 181 -12 9 -26 0 -256 -11 -276 -6 -11 -22 -23 -36 -26 -14 -4 -25 -13 -25
-21 0 -12 21 -15 120 -15 113 0 120 1 120 20 0 16 -7 20 -37 20 l-38 0 1 305
c1 213 5 310 13 319 7 8 23 17 36 20 14 4 25 13 25 21 0 12 -21 15 -120 15
-113 0 -120 -1 -120 -20 0 -16 7 -20 38 -20 l37 0 0 -142 -1 -143 -180 -3
-181 -2 2 131 c1 125 2 132 24 150 13 11 30 19 38 19 8 0 13 6 11 13 -5 13
-228 24 -240 11z"/>
<path d="M3090 4815 c-41 -18 -79 -69 -85 -113 -10 -85 34 -137 162 -190 43
-18 88 -40 101 -50 47 -36 34 -104 -24 -128 -76 -32 -173 16 -194 97 -8 27
-16 39 -29 39 -15 0 -17 -8 -15 -62 1 -35 3 -75 3 -90 1 -23 5 -28 27 -28 18
0 25 4 21 14 -4 10 6 9 44 -5 135 -52 276 7 283 117 6 84 -29 122 -162 179
-42 18 -89 45 -104 60 -73 70 15 163 115 122 37 -16 77 -76 77 -117 0 -13 7
-20 20 -20 21 0 22 4 22 85 0 95 -1 97 -24 93 -13 -2 -22 -9 -20 -17 2 -10 -4
-9 -24 4 -38 25 -148 30 -194 10z"/>
<path d="M3637 4816 c-112 -42 -182 -163 -171 -299 7 -97 67 -181 151 -213 61
-24 152 -14 197 19 l33 26 -2 -126 c-1 -105 -4 -127 -18 -134 -9 -5 -24 -17
-33 -27 -17 -16 -12 -17 91 -20 78 -2 111 1 116 10 12 18 1 28 -31 28 l-29 0
-1 133 c0 72 -2 240 -3 372 -2 234 -2 240 -22 236 -27 -5 -76 -4 -165 3 -53 5
-86 2 -113 -8z m149 -36 c53 -18 58 -39 60 -218 l1 -163 -32 -24 c-67 -52
-141 -38 -194 35 -57 79 -60 225 -6 310 39 61 103 84 171 60z"/>
<path d="M5105 4817 c-57 -22 -91 -49 -123 -96 -40 -58 -45 -77 -48 -171 -2
-62 2 -84 22 -127 60 -125 191 -175 326 -123 52 20 132 86 122 102 -9 15 -34
8 -60 -16 -38 -35 -122 -60 -169 -52 -76 15 -118 82 -132 209 l-5 57 180 0
180 0 -2 38 c-6 79 -54 148 -125 178 -40 17 -124 17 -166 1z m129 -38 c25 -12
52 -62 60 -111 l5 -28 -129 0 c-132 0 -132 0 -121 38 1 1 1 5 2 10 2 13 43 67
58 77 39 25 88 30 125 14z"/>
<path d="M5659 4816 c-219 -78 -245 -411 -40 -513 25 -13 59 -18 111 -18 86 0
133 18 187 73 30 30 33 36 21 49 -12 12 -19 9 -50 -20 -97 -91 -222 -64 -278
60 -19 44 -27 208 -9 219 5 3 9 13 9 22 0 27 57 80 100 93 74 22 154 -17 133
-64 -10 -21 -5 -44 13 -66 9 -10 54 -8 64 4 44 53 -2 137 -90 164 -49 14 -126
13 -171 -3z"/>
<path d="M7572 4818 c-48 -16 -117 -81 -143 -135 -47 -97 -30 -243 37 -321 92
-108 270 -108 382 -2 32 31 35 50 7 50 -7 0 -20 -6 -28 -14 -22 -22 -89 -55
-125 -62 -41 -8 -104 11 -131 40 -28 30 -52 100 -57 169 l-5 57 181 0 182 0
-3 38 c-4 58 -44 128 -91 159 -33 22 -54 28 -107 30 -36 1 -81 -3 -99 -9z
m142 -49 c29 -23 56 -77 53 -109 -1 -19 -8 -20 -124 -20 -122 0 -123 0 -123
24 0 55 79 126 141 126 15 0 38 -9 53 -21z"/>
<path d="M8088 4820 c-90 -27 -142 -103 -104 -152 33 -44 93 -4 81 52 -7 33
17 55 73 66 75 15 111 -31 115 -146 l2 -55 -63 -8 c-168 -20 -269 -105 -247
-207 7 -33 54 -77 91 -86 54 -14 133 2 179 34 l45 32 0 -25 c0 -25 2 -25 79
-25 70 0 79 2 77 18 -2 11 -14 19 -36 22 l-34 5 -1 190 c-1 178 -3 192 -24
227 -12 20 -37 43 -55 52 -36 17 -131 20 -178 6z m164 -355 c-3 -71 -5 -75
-35 -94 -99 -60 -190 -18 -165 75 10 38 40 60 110 79 95 25 93 26 90 -60z"/>
</g>
</svg>
